<svg xmlns="http://www.w3.org/2000/svg" width="40" height="40" viewBox="0 0 40 40">
  <g id="arrowr" transform="translate(-1261 -2811)">
    <g id="Эллипс_2" data-name="Эллипс 2" transform="translate(1261 2811)" fill="#fff" stroke="#ff9500" stroke-width="1">
      <circle cx="20" cy="20" r="20" stroke="none"/>
      <circle cx="20" cy="20" r="19.5" fill="none"/>
    </g>
    <g id="_271226" data-name="271226" transform="translate(1270.916 2822.302)">
      <g id="Сгруппировать_11" data-name="Сгруппировать 11" transform="translate(0 0)">
        <path id="Контур_1" data-name="Контур 1" d="M19.763,48.92,12.51,41.667a1.1,1.1,0,0,0-1.555,0l-.659.659a1.091,1.091,0,0,0-.321.777,1.113,1.113,0,0,0,.321.786l4.231,4.241H1.085A1.073,1.073,0,0,0,0,49.211v.931a1.114,1.114,0,0,0,1.085,1.129H14.576L10.3,55.535a1.089,1.089,0,0,0,0,1.544l.659.657a1.1,1.1,0,0,0,1.555,0l7.253-7.253a1.109,1.109,0,0,0,0-1.56Z" transform="translate(0 -41.346)" fill="#ff9500"/>
      </g>
    </g>
  </g>
</svg>
