<svg id="instagram" xmlns="http://www.w3.org/2000/svg" width="25" height="25" viewBox="0 0 25 25">
  <path id="Контур_20" data-name="Контур 20" d="M211.938,209.469A2.469,2.469,0,1,1,209.469,207,2.469,2.469,0,0,1,211.938,209.469Zm0,0" transform="translate(-196.969 -196.969)" fill="#fff"/>
  <path id="Контур_21" data-name="Контур 21" d="M147.331,137.193a2.453,2.453,0,0,0-1.406-1.406,4.1,4.1,0,0,0-1.375-.255c-.781-.036-1.015-.043-2.993-.043s-2.212.007-2.993.043a4.1,4.1,0,0,0-1.375.255,2.454,2.454,0,0,0-1.406,1.406,4.1,4.1,0,0,0-.255,1.375c-.036.781-.043,1.015-.043,2.993s.008,2.212.043,2.993a4.1,4.1,0,0,0,.255,1.375,2.453,2.453,0,0,0,1.406,1.406,4.093,4.093,0,0,0,1.375.255c.781.036,1.015.043,2.993.043s2.212-.007,2.993-.043a4.093,4.093,0,0,0,1.375-.255,2.453,2.453,0,0,0,1.406-1.406,4.1,4.1,0,0,0,.255-1.375c.036-.781.043-1.015.043-2.993s-.007-2.212-.043-2.993A4.093,4.093,0,0,0,147.331,137.193Zm-5.774,8.172a3.8,3.8,0,1,1,3.8-3.8A3.8,3.8,0,0,1,141.557,145.364Zm3.954-6.868a.889.889,0,1,1,.889-.889A.889.889,0,0,1,145.511,138.5Zm0,0" transform="translate(-129.057 -129.061)" fill="#fff"/>
  <path id="Контур_22" data-name="Контур 22" d="M12.5,0A12.5,12.5,0,1,0,25,12.5,12.5,12.5,0,0,0,12.5,0Zm7.134,15.459A5.266,5.266,0,0,1,19.3,17.2a3.67,3.67,0,0,1-2.1,2.1,5.27,5.27,0,0,1-1.742.334c-.765.035-1.01.043-2.959.043s-2.194-.008-2.959-.043A5.27,5.27,0,0,1,7.8,19.3a3.67,3.67,0,0,1-2.1-2.1,5.265,5.265,0,0,1-.334-1.742c-.035-.766-.043-1.01-.043-2.959s.008-2.194.043-2.959A5.267,5.267,0,0,1,5.7,7.8,3.673,3.673,0,0,1,7.8,5.7a5.271,5.271,0,0,1,1.742-.334c.765-.035,1.01-.043,2.959-.043s2.194.008,2.959.043A5.272,5.272,0,0,1,17.2,5.7a3.671,3.671,0,0,1,2.1,2.1,5.266,5.266,0,0,1,.334,1.742c.035.765.043,1.01.043,2.959S19.67,14.694,19.634,15.459Zm0,0" fill="#fff"/>
</svg>
