<svg xmlns="http://www.w3.org/2000/svg" width="50" height="50" viewBox="0 0 50 50">
  <g id="mail" transform="translate(-0.001)">
    <g id="Сгруппировать_13" data-name="Сгруппировать 13" transform="translate(0.001)">
      <path id="Контур_6" data-name="Контур 6" d="M25,0A25,25,0,1,0,50,25,25,25,0,0,0,25,0Zm0,8.781L39.8,18.006H10.207ZM39.979,32.738h0A2.678,2.678,0,0,1,37.3,35.416H12.7a2.678,2.678,0,0,1-2.679-2.679V18.593a2.665,2.665,0,0,1,.042-.458L24.2,26.949c.017.011.036.018.054.028l.057.03a1.484,1.484,0,0,0,.308.12l.033.007a1.525,1.525,0,0,0,.349.044h0a1.5,1.5,0,0,0,.349-.044l.033-.007a1.5,1.5,0,0,0,.308-.12l.057-.03c.018-.01.036-.017.054-.028l14.135-8.814a2.661,2.661,0,0,1,.042.458V32.738Z" transform="translate(-0.001)" fill="#ff9500"/>
    </g>
  </g>
</svg>
