<svg xmlns="http://www.w3.org/2000/svg" width="50" height="50" viewBox="0 0 50 50">
  <g id="pin" transform="translate(-0.001)">
    <g id="Сгруппировать_15" data-name="Сгруппировать 15" transform="translate(0.001)">
      <g id="Сгруппировать_14" data-name="Сгруппировать 14" transform="translate(0)">
        <circle id="Эллипс_6" data-name="Эллипс 6" cx="4.035" cy="4.035" r="4.035" transform="translate(21.038 14.397)" fill="#ff9500"/>
        <path id="Контур_7" data-name="Контур 7" d="M25,0A25,25,0,1,0,50,25,25,25,0,0,0,25,0Zm-.052,11.447.052,0,.052,0a7.8,7.8,0,0,1,7.639,7.761c0,5.151-5.5,10.368-7.691,12.237-.146-.125-.308-.266-.482-.42l-.008-.007c-2.421-2.151-7.2-7.008-7.2-11.809A7.8,7.8,0,0,1,24.949,11.447Zm.161,27.262c-4.611,0-9.278-1.323-9.278-3.85,0-1.774,2.3-2.953,5.262-3.5.573.576,1.116,1.084,1.592,1.508-3.228.361-5.124,1.382-5.124,1.991,0,.747,2.866,2.121,7.549,2.121s7.55-1.373,7.55-2.121c0-.621-1.976-1.668-5.321-2.009.48-.429,1.027-.942,1.6-1.524,3.052.531,5.446,1.723,5.446,3.533C34.388,37.386,29.72,38.709,25.11,38.709Z" transform="translate(-0.001 0)" fill="#ff9500"/>
      </g>
    </g>
  </g>
</svg>
