<svg xmlns="http://www.w3.org/2000/svg" width="25" height="25" viewBox="0 0 25 25">
  <path id="Контур_22" data-name="Контур 22" d="M12.5,0A12.5,12.5,0,1,0,25,12.5,12.5,12.5,0,0,0,12.5,0Zm7.134,15.459A5.266,5.266,0,0,1,19.3,17.2a3.67,3.67,0,0,1-2.1,2.1,5.27,5.27,0,0,1-1.742.334c-.765.035-1.01.043-2.959.043s-2.194-.008-2.959-.043A5.27,5.27,0,0,1,7.8,19.3a3.67,3.67,0,0,1-2.1-2.1,5.265,5.265,0,0,1-.334-1.742c-.035-.766-.043-1.01-.043-2.959s.008-2.194.043-2.959A5.267,5.267,0,0,1,5.7,7.8,3.673,3.673,0,0,1,7.8,5.7a5.271,5.271,0,0,1,1.742-.334c.765-.035,1.01-.043,2.959-.043s2.194.008,2.959.043A5.272,5.272,0,0,1,17.2,5.7a3.671,3.671,0,0,1,2.1,2.1,5.266,5.266,0,0,1,.334,1.742c.035.765.043,1.01.043,2.959S19.67,14.694,19.634,15.459Zm0,0" fill="#fff"/>
</svg>
