<svg xmlns="http://www.w3.org/2000/svg" width="50" height="50" viewBox="0 0 50 50">
  <path id="Контур_5" data-name="Контур 5" d="M42.675,7.319A25,25,0,1,0,50,24.994,25,25,0,0,0,42.675,7.319ZM37.861,34.824l0,0v-.008l-1.267,1.258a6.667,6.667,0,0,1-6.292,1.8,22.152,22.152,0,0,1-6.433-2.883A29.724,29.724,0,0,1,18.791,30.9,29.952,29.952,0,0,1,15,26.3a23.331,23.331,0,0,1-2.85-5.767,6.666,6.666,0,0,1,1.667-6.808L15.3,12.244a1.058,1.058,0,0,1,1.5,0l0,0,4.683,4.683a1.058,1.058,0,0,1,0,1.5l0,0-2.75,2.75a2.242,2.242,0,0,0-.233,2.917,32.161,32.161,0,0,0,3.292,3.842,31.964,31.964,0,0,0,4.333,3.642,2.258,2.258,0,0,0,2.883-.25l2.658-2.7a1.058,1.058,0,0,1,1.5,0l0,0,4.692,4.7A1.058,1.058,0,0,1,37.861,34.824Z" transform="translate(0 0)" fill="#ff9500"/>
</svg>
